<?xml version="1.0" encoding="utf-8"?>
<!-- Generator: Adobe Illustrator 18.0.0, SVG Export Plug-In . SVG Version: 6.00 Build 0)  -->
<!DOCTYPE svg PUBLIC "-//W3C//DTD SVG 1.1//EN" "http://www.w3.org/Graphics/SVG/1.1/DTD/svg11.dtd">
<svg version="1.1" id="Layer_1" xmlns="http://www.w3.org/2000/svg" xmlns:xlink="http://www.w3.org/1999/xlink" x="0px" y="0px"
	 viewBox="0 0 208 80" enable-background="new 0 0 208 80" xml:space="preserve">
<g>
	<path fill="#7289D9" d="M23.1,41.3c-1.9,0-3.4,1.7-3.4,3.7s1.5,3.7,3.4,3.7c1.9,0,3.4-1.7,3.4-3.7C26.6,43,25,41.3,23.1,41.3z"/>
	<path fill="#7289D9" d="M35.3,41.3c-1.9,0-3.4,1.7-3.4,3.7s1.5,3.7,3.4,3.7c1.9,0,3.4-1.7,3.4-3.7S37.2,41.3,35.3,41.3z"/>
	<path fill="#7289D9" d="M51.5,13.3H6.8c-3.8,0-6.8,3.1-6.8,6.9v45.1c0,3.8,3.1,6.9,6.8,6.9h37.8L42.9,66l4.3,4l4,3.7l7.2,6.3V20.2
		C58.3,16.4,55.3,13.3,51.5,13.3z M38.6,56.9c0,0-1.2-1.4-2.2-2.7c4.4-1.2,6-4,6-4c-1.4,0.9-2.7,1.5-3.8,2c-1.7,0.7-3.3,1.2-4.8,1.4
		c-3.2,0.6-6.1,0.4-8.6,0c-1.9-0.4-3.5-0.9-4.9-1.4c-0.8-0.3-1.6-0.7-2.4-1.1c-0.1-0.1-0.2-0.1-0.3-0.2c-0.1,0-0.1-0.1-0.1-0.1
		c-0.6-0.3-0.9-0.6-0.9-0.6s1.6,2.7,5.8,3.9c-1,1.3-2.2,2.8-2.2,2.8c-7.4-0.2-10.2-5.1-10.2-5.1c0-10.7,4.8-19.4,4.8-19.4
		c4.8-3.6,9.4-3.5,9.4-3.5l0.3,0.4c-6,1.7-8.8,4.4-8.8,4.4s0.7-0.4,2-1c3.6-1.6,6.4-2,7.6-2.1c0.2,0,0.4-0.1,0.6-0.1
		c2-0.3,4.3-0.3,6.7-0.1c3.2,0.4,6.6,1.3,10,3.2c0,0-2.6-2.5-8.3-4.2l0.5-0.5c0,0,4.6-0.1,9.4,3.5c0,0,4.8,8.7,4.8,19.4
		C48.8,51.8,46,56.6,38.6,56.9z"/>
</g>
<text transform="matrix(1 0 0 1 61.4321 41)" fill="none" stroke="#000000" stroke-width="0.25" font-family="'PricedownBl-Regular'" font-size="12">East</text>
<text transform="matrix(1 0 0 1 85.5503 41.0405)" fill="#B38A6D" stroke="#000000" stroke-width="0.25" stroke-miterlimit="10" font-family="'PricedownBl-Regular'" font-size="12">Coast</text>
<text transform="matrix(1 0 0 1 117.2231 42.9262)" font-family="'PricedownBl-Regular'" font-size="12">Community</text>
<linearGradient id="SVGID_1_" gradientUnits="userSpaceOnUse" x1="61.4323" y1="61.085" x2="174.64" y2="61.085">
	<stop  offset="0" style="stop-color:#7289D9"/>
	<stop  offset="1" style="stop-color:#3657C8;stop-opacity:0.1"/>
</linearGradient>
<path fill="url(#SVGID_1_)" d="M69.1,42.7h-7.6v15.5l5.1,8.2v-15h2.7c1.7,0,2.6,1.5,2.6,3.9v11.5c0,2.4-0.8,4-2.6,4h-7.8v8.7h7.6
	c4.1,0,7.9-3.6,7.9-12.1V55C77,46.4,73.2,42.7,69.1,42.7z M109.1,67.4V54.8c0-4.6,4.6-5.6,5.9-1l4.2-3.1c-1.6-6.5-4.7-8.5-7.2-8.5
	c-4.1,0-8.1,4.3-8.1,12.6v12.7C104,75.8,108,80,112,80c2.6,0,5.7-2.3,7.4-8.3l-4.5-3.7C113.8,73.1,109.1,71.9,109.1,67.4z
	 M95.2,56.5c-1.6-0.6-2.6-1.6-2.7-3.4c0.1-4.3,3.8-4.4,5.9-0.3l3.4-4.7c-2.1-4.6-4.5-5.9-7-5.9c-3.8,0-7.4,3.8-7.4,11
	c0,7,3,10.8,6.3,11.7c1.7,0.4,3.5,1.6,3.5,3.7c-0.1,3.9-4.6,3.7-6.7-0.7l-3.2,5.5c1.9,4.4,4.5,6.7,7,6.7c3.8,0,7.9-3.9,8.1-11
	C102.5,59.9,98.8,57.7,95.2,56.5L95.2,56.5z M79.8,79.5H85V42.7h-5.2V79.5z M166.7,42.7h-7.6v15.5l5.1,8.2v-15h2.7
	c1.7,0,2.6,1.5,2.6,3.9v11.5c0,2.4-0.8,4-2.6,4h-7.8v8.7h7.6c4.1,0,7.9-3.6,7.9-12.1V55C174.7,46.4,170.8,42.7,166.7,42.7z
	 M129.2,42.2c-4.2,0-8.4,4.2-8.4,12.6v12.6c0,8.4,4.2,12.6,8.5,12.6c4.2,0,8.4-4.2,8.4-12.6V54.8C137.7,46.4,133.5,42.2,129.2,42.2z
	 M132.5,67.4c0,2.6-1.7,4-3.3,4c-1.7,0-3.3-1.3-3.3-4V54.8c0-2.7,1.6-4.2,3.2-4.2c1.7,0,3.4,1.3,3.4,4.2V67.4L132.5,67.4z
	 M156.2,54.8c-0.1-8.6-3.4-12.1-7.6-12.1h-8.2v36.8h5.2V67.8h0.9l4.7,11.7h6.4l-5.6-12.6C154.7,65.4,156.2,61.6,156.2,54.8z
	 M148.7,59.8h-3v-8.4h3C152,51.4,152,59.8,148.7,59.8L148.7,59.8z"/>
</svg>
