<?xml version="1.0" encoding="UTF-8" standalone="no"?><!DOCTYPE svg PUBLIC "-//W3C//DTD SVG 1.1//EN" "http://www.w3.org/Graphics/SVG/1.1/DTD/svg11.dtd"><svg width="100%" height="100%" viewBox="0 0 896 852" version="1.1" xmlns="http://www.w3.org/2000/svg" xmlns:xlink="http://www.w3.org/1999/xlink" xml:space="preserve" xmlns:serif="http://www.serif.com/" style="fill-rule:evenodd;clip-rule:evenodd;stroke-linejoin:round;stroke-miterlimit:2;"><g><path d="M724.673,851.275l-276.804,-200.816l-276.514,201.208l105.452,-325.304l-276.804,-200.816l341.971,-0.238l105.452,-325.304l105.895,325.15l341.97,-0.238l-276.514,201.208l105.896,325.15Z" style="fill:#ffd700;fill-rule:nonzero;"/><path d="M895.288,324.924l-276.514,201.191l105.895,325.167l-276.786,-200.816l-276.532,201.191l105.453,-325.304l-276.804,-200.799l341.97,-0.238l105.452,-325.304l105.896,325.15l341.97,-0.238Z" style="fill:#ffd700;fill-rule:nonzero;"/><path d="M447.75,470.684l-105.776,-145.38l105.452,-325.304l0.324,470.684Z" style="fill:#daa520;fill-rule:nonzero;"/><path d="M447.75,470.684l-170.943,55.674l-276.804,-200.816l447.747,145.142Z" style="fill:#daa520;fill-rule:nonzero;"/><path d="M447.75,470.684l0.119,179.787l-276.514,201.191l276.395,-380.978Z" style="fill:#daa520;fill-rule:nonzero;"/><path d="M447.75,470.684l171.027,55.436l105.896,325.15l-276.923,-380.586Z" style="fill:#daa520;fill-rule:nonzero;"/><path d="M447.75,470.684l105.571,-145.517l341.97,-0.238l-447.541,145.755Z" style="fill:#daa520;fill-rule:nonzero;"/></g></svg>