<?xml version="1.0" encoding="UTF-8" standalone="no"?><!DOCTYPE svg PUBLIC "-//W3C//DTD SVG 1.1//EN" "http://www.w3.org/Graphics/SVG/1.1/DTD/svg11.dtd"><svg width="100%" height="100%" viewBox="0 0 867 334" version="1.1" xmlns="http://www.w3.org/2000/svg" xmlns:xlink="http://www.w3.org/1999/xlink" xml:space="preserve" xmlns:serif="http://www.serif.com/" style="fill-rule:evenodd;clip-rule:evenodd;stroke-linejoin:round;stroke-miterlimit:2;"><g><g><path d="M590.822,331.729l-315.672,0c1.724,0.775 3.649,1.188 5.683,1.188l304.167,-0c2.035,-0 4.014,-0.413 5.822,-1.188Z"/><path d="M275.15,331.729l315.672,0c5.268,-2.135 9.178,-7.097 9.178,-12.979c-0,-7.917 -6.25,-14.167 -14.167,-14.167l-36.25,0l0,-110.416c0,-7.917 -6.25,-14.167 -14.166,-14.167c-7.917,0 -14.167,6.25 -14.167,14.167l0,110.416l-57.917,0l0,-144.166c0,-7.917 -6.25,-14.167 -14.166,-14.167c-7.917,0 -14.167,6.25 -14.167,14.167l-0,144.166l-58.75,0l0,-70.833c0,-7.917 -6.25,-14.167 -14.167,-14.167c-7.916,0 -14.166,6.25 -14.166,14.167l-0,70.833l-52.917,0l0,-281.666c0,-7.917 -6.25,-14.167 -14.167,-14.167c-7.916,-0 -14.166,6.25 -14.166,14.167l-0,295.833c-0,5.882 3.45,10.844 8.483,12.979Z"/><path d="M453.589,0.909l-9.813,-0l4.974,-0.492l4.839,0.492Z"/><path d="M453.589,0.909l-9.813,-0c-21.782,2.216 -38.359,20.366 -38.359,42.841c-0,9.167 2.916,17.5 7.5,24.167l-39.167,48.333c-3.75,-1.25 -7.5,-1.667 -11.667,-1.667c-24.166,0 -43.333,19.167 -43.333,43.334c0.833,22.916 20,42.916 43.333,42.916c24.167,0 43.334,-20 43.75,-43.333c0,-9.583 -2.916,-18.333 -8.333,-25.417l38.333,-47.5c4.167,1.25 8.334,2.084 12.917,2.084c5.417,-0 10.833,-1.25 15.833,-2.917l30.417,28.75c-1.667,4.583 -2.917,10 -2.917,15.417c0,24.166 20,43.333 43.334,43.333c23.333,0 43.333,-19.167 43.333,-43.333c0,-24.167 -20,-43.334 -43.333,-43.334c-8.334,0 -15.834,2.084 -22.5,6.25l-26.667,-25.416c3.75,-6.25 5.833,-13.75 5.833,-21.667c0,-22.468 -17.287,-40.614 -38.494,-42.841Z"/><path d="M362.083,142.083c8.334,0 15.417,7.084 15.417,15.417c0,8.333 -7.083,15.417 -15.417,15.417c-8.333,-0 -15.416,-7.084 -15.416,-15.417c-0,-8.333 7.083,-15.417 15.416,-15.417Z"/><path d="M535.417,112.917c8.333,-0 15,6.25 15.416,15.416c0,8.334 -7.083,15.417 -15.416,15.417c-8.334,0 -15.417,-7.083 -15.417,-15.417c0,-8.333 7.083,-15.416 15.417,-15.416Z"/><path d="M449.167,27.917c7.916,-0 15.416,7.083 15.416,15.416c0,8.334 -7.083,15.417 -15.416,15.417c-8.334,0 -15.417,-7.083 -15.417,-15.417c-0,-8.333 7.083,-15.416 15.417,-15.416Z"/></g><path d="M362.083,142.083c8.334,0 15.417,7.084 15.417,15.417c0,8.333 -7.083,15.417 -15.417,15.417c-8.333,-0 -15.416,-7.084 -15.416,-15.417c-0,-8.333 7.083,-15.417 15.416,-15.417Z" style="fill:#ebebeb;"/><path d="M535.417,112.917c8.333,-0 15,6.25 15.416,15.416c0,8.334 -7.083,15.417 -15.416,15.417c-8.334,0 -15.417,-7.083 -15.417,-15.417c0,-8.333 7.083,-15.416 15.417,-15.416Z" style="fill:#ebebeb;"/><path d="M449.167,27.917c7.916,-0 15.416,7.083 15.416,15.416c0,8.334 -7.083,15.417 -15.416,15.417c-8.334,0 -15.417,-7.083 -15.417,-15.417c-0,-8.333 7.083,-15.416 15.417,-15.416Z" style="fill:#ebebeb;"/></g></svg>