<?xml version="1.0" encoding="UTF-8" standalone="no"?><!DOCTYPE svg PUBLIC "-//W3C//DTD SVG 1.1//EN" "http://www.w3.org/Graphics/SVG/1.1/DTD/svg11.dtd"><svg width="100%" height="100%" viewBox="0 0 2845 2845" version="1.1" xmlns="http://www.w3.org/2000/svg" xmlns:xlink="http://www.w3.org/1999/xlink" xml:space="preserve" xmlns:serif="http://www.serif.com/" style="fill-rule:evenodd;clip-rule:evenodd;stroke-linejoin:round;stroke-miterlimit:2;"><path d="M1379.92,1212.52c11.677,11.683 26.994,17.533 42.305,17.533c15.311,0 30.617,-5.844 42.3,-17.533l489.628,-489.617c12.7,-12.7 19.028,-30.433 17.228,-48.311c-1.8,-17.867 -11.534,-33.983 -26.506,-43.895c-155.044,-102.627 -335.772,-156.872 -522.65,-156.872c-186.866,0 -367.605,54.245 -522.655,156.878c-14.984,9.911 -24.711,26.028 -26.511,43.894c-1.8,17.867 4.527,35.606 17.227,48.312l489.634,489.611Zm42.305,-619.028c138.411,-0 272.917,34.022 393.145,98.961l-393.145,393.144l-393.155,-393.144c120.239,-64.944 254.75,-98.961 393.155,-98.961Z" style="fill:#ff0c38;fill-rule:nonzero;"/><path d="M1614.39,1422.23c-0,15.866 6.3,31.094 17.528,42.316l489.639,489.617c11.272,11.278 26.522,17.517 42.3,17.517c1.994,-0 3.988,-0.095 6,-0.306c17.866,-1.8 33.983,-11.522 43.894,-26.505c102.628,-155.039 156.878,-335.767 156.878,-522.645c-0,-186.878 -54.245,-367.605 -156.878,-522.666c-9.911,-14.973 -26.028,-24.706 -43.894,-26.506c-17.878,-1.822 -35.606,4.522 -48.306,17.228l-489.644,489.639c-11.217,11.222 -17.517,26.439 -17.517,42.311Zm537.639,-393.184c132.866,245.489 132.861,540.867 -0,786.356l-393.189,-393.172l393.189,-393.184Z" style="fill:#ff0c38;fill-rule:nonzero;"/><path d="M1422.27,2370.63c186.828,0 367.55,-54.244 522.611,-156.877c14.973,-9.923 24.706,-26.039 26.506,-43.906c1.8,-17.867 -4.522,-35.594 -17.228,-48.3l-489.628,-489.628c-11.216,-11.216 -26.433,-17.533 -42.3,-17.533c-15.866,-0 -31.089,6.311 -42.316,17.533l-489.623,489.628c-12.694,12.7 -19.027,30.433 -17.227,48.3c1.8,17.867 11.527,33.983 26.511,43.906c155.028,102.616 335.755,156.866 522.644,156.877l0.05,0Zm-393.211,-218.627l393.161,-393.162l393.145,393.162c-120.239,64.938 -254.717,98.961 -393.1,98.961l-0.061,-0c-138.406,-0.006 -272.928,-34.05 -393.145,-98.961Z" style="fill:#ff0c38;fill-rule:nonzero;"/><path d="M2427.88,416.572c-268.622,-268.633 -625.767,-416.572 -1005.67,-416.572c-379.883,0 -737.033,147.939 -1005.64,416.567c-268.628,268.622 -416.567,625.766 -416.567,1005.66c-0,379.883 147.939,737.039 416.561,1005.65c268.622,268.623 625.767,416.556 1005.65,416.556c379.895,-0 737.045,-147.939 1005.67,-416.556c268.622,-268.622 416.561,-625.772 416.561,-1005.65c0.005,-379.895 -147.939,-737.039 -416.561,-1005.66Zm-84.617,1926.69c-246.017,246.017 -573.122,381.511 -921.05,381.511c-347.917,0 -675.017,-135.494 -921.039,-381.511c-246.011,-246.017 -381.505,-573.111 -381.505,-921.033c-0,-347.922 135.494,-675.017 381.516,-921.039c246.011,-246.028 573.106,-381.522 921.028,-381.522c347.928,-0 675.028,135.489 921.05,381.522c246.022,246.017 381.517,573.117 381.517,921.039c-0,347.922 -135.495,675.016 -381.517,921.033Z" style="fill:#ff0c38;fill-rule:nonzero;"/><path d="M1230.05,1422.23c0,-15.867 -6.306,-31.084 -17.528,-42.3l-489.639,-489.628c-12.7,-12.7 -30.427,-19.05 -48.305,-17.228c-17.872,1.8 -33.989,11.534 -43.9,26.506c-102.628,155.05 -156.872,335.789 -156.878,522.655c-0,186.873 54.244,367.6 156.878,522.65c9.911,14.984 26.033,24.717 43.9,26.506c2.005,0.211 4.005,0.305 6,0.305c15.783,0 31.028,-6.238 42.3,-17.516l489.639,-489.628c11.227,-11.239 17.533,-26.456 17.533,-42.322Zm-537.639,393.183c-132.861,-245.489 -132.861,-540.85 0.006,-786.355l393.189,393.172l-393.195,393.183Z" style="fill:#ff0c38;fill-rule:nonzero;"/><path d="M297.25,1356.74l-0.478,0c-32.822,0 -59.566,26.484 -59.822,59.367l-0.011,6.111c-0,33.045 26.789,59.834 59.833,59.834c33.039,-0 59.834,-26.789 59.834,-59.834l0.011,-5.178c0.261,-33.044 -26.323,-60.038 -59.367,-60.3Z" style="fill:#ff0c38;fill-rule:nonzero;"/><path d="M2547.67,1362.39c-33.039,0 -59.833,26.8 -59.833,59.834l-0.011,5.644c-0,33.034 26.794,59.834 59.833,59.834c33.039,-0 59.833,-26.8 59.833,-59.834l0.012,-5.644c-0,-33.039 -26.795,-59.834 -59.834,-59.834Z" style="fill:#ff0c38;fill-rule:nonzero;"/><path d="M668.722,584.106c-23.372,-23.362 -61.255,-23.362 -84.622,-0c-178.972,178.972 -294.139,405.755 -333.061,655.838c-5.083,32.65 17.267,63.245 49.917,68.328c3.116,0.478 6.216,0.711 9.277,0.711c28.984,0 54.45,-21.105 59.045,-50.639c34.994,-224.827 138.533,-428.716 299.444,-589.627c23.361,-23.356 23.361,-61.239 0,-84.611Z" style="fill:#ff0c38;fill-rule:nonzero;"/><path d="M2543.49,1536.19c-32.695,-5.111 -63.239,17.273 -68.322,49.912c-81.328,522.511 -524.156,901.744 -1052.94,901.744c-33.044,0 -59.833,26.8 -59.833,59.833c-0,33.05 26.789,59.834 59.833,59.834c282.561,-0 556.367,-101.228 770.984,-285.028c214.616,-183.789 356.744,-438.783 400.194,-717.978c5.089,-32.65 -17.261,-63.239 -49.911,-68.317Z" style="fill:#ff0c38;fill-rule:nonzero;"/></svg>