<?xml version="1.0" encoding="UTF-8" standalone="no"?><!DOCTYPE svg PUBLIC "-//W3C//DTD SVG 1.1//EN" "http://www.w3.org/Graphics/SVG/1.1/DTD/svg11.dtd"><svg width="100%" height="100%" viewBox="0 0 3000 3000" version="1.1" xmlns="http://www.w3.org/2000/svg" xmlns:xlink="http://www.w3.org/1999/xlink" xml:space="preserve" xmlns:serif="http://www.serif.com/" style="fill-rule:evenodd;clip-rule:evenodd;stroke-linejoin:round;stroke-miterlimit:2;"><g id="Layer1"><path d="M2347.37,1017.11c-9.299,-90.706 -44.408,-179.001 -106.247,-251.826c-6.998,-8.24 -14.21,-15.242 -21.881,-24.061l-0.002,-0c-21.793,-21.165 -45.316,-41.79 -70.134,-58.474c-174.304,-117.178 -412.602,-97.789 -565.649,58.297l-153.458,156.475l-125.333,-127.831c-100.493,-102.486 -237.739,-146.077 -369.493,-130.752c-97.477,11.339 -191.942,54.918 -266.29,130.741c-98.497,100.451 -141.507,236.915 -129.027,368.813c3.465,36.614 11.387,72.824 23.401,107.866c12.673,36.959 30.078,72.535 52.263,105.764c15.514,23.238 33.198,45.387 53.363,65.954l125.329,127.82l11.672,11.904l103.67,105.726l520.445,530.774l635.786,-648.404l153.457,-156.504c68.782,-70.146 110.029,-157.906 124.669,-249.344c6.514,-40.681 7.657,-81.995 3.459,-122.938Z" style="fill:#8a0700;fill-rule:nonzero;"/></g></svg>