<?xml version="1.0" encoding="UTF-8" standalone="no"?><!DOCTYPE svg PUBLIC "-//W3C//DTD SVG 1.1//EN" "http://www.w3.org/Graphics/SVG/1.1/DTD/svg11.dtd"><svg width="100%" height="100%" viewBox="0 0 3000 3000" version="1.1" xmlns="http://www.w3.org/2000/svg" xmlns:xlink="http://www.w3.org/1999/xlink" xml:space="preserve" xmlns:serif="http://www.serif.com/" style="fill-rule:evenodd;clip-rule:evenodd;stroke-linecap:round;stroke-linejoin:round;stroke-miterlimit:1.5;"><path d="M548.383,2292.59c-45.995,12.482 -91.527,26.391 -136.784,40.833c-126.325,40.477 -251.109,85.679 -374.979,133.109c321.631,282.799 745.236,456.205 1211.19,456.205c445.325,0 852.758,-157.625 1168.75,-418.404c-164.128,-74.889 -395.797,-150.494 -395.797,-150.494c-275.459,-51.976 -358.795,-114.028 -358.795,-114.028c-88.434,-39.584 -73.252,-413.857 -73.252,-413.857c136.408,-17.385 128.868,-428.835 128.868,-428.835c95.974,59.466 103.602,-64.458 103.602,-64.458c4.998,-47.075 30.263,-133.822 30.263,-133.822c93.519,-290.021 -42.989,-220.659 -42.989,-220.659c75.795,-282.531 42.989,-525.389 42.989,-525.389c-16.359,-120.894 -73.34,-221.461 -176.128,-291.715c-34.81,-23.805 -72.614,-43.33 -112.146,-58.396c-53.799,-20.507 -109.515,-48.233 -164.679,-63.122c-44.994,-12.215 -91.252,-19.347 -137.686,-23.804c-51.169,-4.815 -103.34,-7.133 -154.684,-4.19c-48.075,-0 -70.797,29.776 -70.797,29.776c-7.278,9.362 -69.344,20.774 -83.611,27.371c-25.453,11.679 -50.267,24.786 -74.53,38.693c-61.615,35.573 -116.417,81.488 -173.761,123.035c-44.805,32.451 -101.698,54.206 -133.69,100.922c-27.908,40.833 -43.265,88.978 -51.983,136.942c-9.908,54.919 -16.271,119.825 -5.361,175.279c12.539,64.459 30.263,351.983 30.263,351.983c-101.06,-19.792 -45.445,126.422 -45.445,126.422c20.18,27.281 47.988,175.992 47.988,175.992c25.265,215.665 131.41,128.918 131.41,128.918c-17.724,381.672 113.699,401.465 113.699,401.465c17.636,223.065 -25.265,351.983 -25.265,351.983c-32.079,82.557 -141.958,92.007 -216.663,112.245Z" style="stroke:#ebebeb;stroke-width:1px;"/><path d="M2989.04,1791.09c-9.299,-90.706 -44.409,-179.001 -106.247,-251.826c-6.998,-8.24 -14.21,-15.242 -21.882,-24.061l-0.001,-0c-21.793,-21.165 -45.316,-41.79 -70.134,-58.473c-174.304,-117.178 -412.602,-97.79 -565.65,58.297l-153.458,156.474l-125.332,-127.831c-100.493,-102.486 -237.739,-146.077 -369.494,-130.752c-97.476,11.339 -191.942,54.918 -266.289,130.741c-98.497,100.451 -141.507,236.915 -129.027,368.813c3.465,36.614 11.387,72.824 23.401,107.866c12.673,36.959 30.078,72.536 52.263,105.765c15.514,23.237 33.198,45.386 53.363,65.953l125.329,127.82l11.671,11.904l103.671,105.726l520.444,530.774l635.787,-648.404l153.456,-156.504c68.782,-70.146 110.03,-157.906 124.67,-249.344c6.514,-40.681 7.657,-81.995 3.459,-122.938Z" style="fill:#8a0700;fill-rule:nonzero;"/><path d="M1281.92,2164.02l657.185,-4.065l91.319,570.579l178.284,-955.149l113.597,349.51l593.723,-28.297" style="fill:none;stroke:#ebebeb;stroke-width:1px;"/></svg>